<svg width="516" height="516" viewBox="0 0 516 516" fill="none" xmlns="http://www.w3.org/2000/svg">
<rect x="4" y="4" width="508" height="508" rx="19" stroke="white" stroke-width="8"/>
<path d="M94.7959 323.149V334.062C94.7959 336.65 93.5508 338.823 91.0605 340.581C88.6191 342.339 86.3242 343.218 84.1758 343.218C82.4668 343.218 81.6123 342.168 81.6123 340.068V328.789C81.6123 326.494 82.833 324.468 85.2744 322.71C87.7158 320.903 90.0352 320 92.2324 320C93.9414 320 94.7959 321.05 94.7959 323.149ZM94.7959 361.309V450.298C94.7959 454.741 94.3076 458.745 93.3311 462.31C92.3545 465.874 91.1094 468.657 89.5957 470.659C88.1309 472.661 86.6172 474.175 85.0547 475.2C83.541 476.226 82.1006 476.738 80.7334 476.738C79.8057 476.738 79.3418 476.323 79.3418 475.493C79.3418 475.2 79.6348 474.346 80.2207 472.93C80.8066 471.562 81.1973 470.098 81.3926 468.535C81.6367 466.826 81.7588 463.872 81.7588 459.673L81.6123 367.607C81.6123 365.752 82.0518 364.263 82.9307 363.14C84.2002 361.675 85.6895 360.479 87.3984 359.551C89.1562 358.623 90.7676 358.159 92.2324 358.159C93.9414 358.159 94.7959 359.209 94.7959 361.309ZM65.4258 466.338C67.0859 468.242 68.9414 469.194 70.9922 469.194C71.6758 469.194 72.5791 468.901 73.7021 468.315C74.874 467.778 75.6309 467.51 75.9727 467.51C76.9492 467.51 77.4375 468.071 77.4375 469.194C77.4375 469.976 77.1689 470.928 76.6318 472.051C76.1436 473.174 75.4355 474.321 74.5078 475.493C73.6289 476.665 72.4082 477.642 70.8457 478.423C69.2832 479.253 67.5986 479.668 65.792 479.668C62.3252 479.668 59.4932 478.765 57.2959 476.958C55.0986 475.151 54 473.369 54 471.611C54 469.902 54.9033 468.193 56.71 466.484C58.4678 464.873 60.0547 464.067 61.4707 464.067C62.7891 464.067 64.1074 464.824 65.4258 466.338Z" fill="white"/>
<path d="M143.209 377.349C147.066 378.081 150.509 378.984 153.536 380.059C156.612 381.133 159.2 382.28 161.3 383.501C163.399 384.673 165.206 386.04 166.72 387.603C168.233 389.165 169.405 390.679 170.235 392.144C171.114 393.608 171.798 395.293 172.286 397.197C172.774 399.102 173.092 400.859 173.238 402.471C173.385 404.033 173.458 405.864 173.458 407.964C173.458 411.87 172.726 415.605 171.261 419.17C169.796 422.734 167.965 425.688 165.768 428.032C163.619 430.327 161.373 432.158 159.029 433.525C156.686 434.893 154.562 435.576 152.657 435.576C151.632 435.576 151.119 435.088 151.119 434.111C151.119 433.477 151.51 432.769 152.291 431.987C154.781 429.595 156.612 426.689 157.784 423.271C158.956 419.854 159.542 416.753 159.542 413.97C159.542 412.31 159.518 411.016 159.469 410.088C159.42 409.16 159.249 407.891 158.956 406.279C158.712 404.668 158.321 403.374 157.784 402.397C157.296 401.372 156.539 400.225 155.514 398.955C154.488 397.637 153.243 396.562 151.778 395.732C150.313 394.854 148.434 394.048 146.139 393.315C143.893 392.534 141.305 391.924 138.375 391.484C134.664 390.947 131.319 390.239 128.341 389.36C125.411 388.433 122.97 387.456 121.017 386.431C119.112 385.405 117.452 384.209 116.036 382.842C114.669 381.475 113.619 380.205 112.887 379.033C112.154 377.812 111.593 376.445 111.202 374.932C110.812 373.418 110.567 372.173 110.47 371.196C110.372 370.171 110.323 369.023 110.323 367.754C110.323 366.289 110.543 364.897 110.982 363.579C111.666 361.479 113.229 359.478 115.67 357.573C118.111 355.669 120.235 354.717 122.042 354.717C122.921 354.717 123.58 354.912 124.02 355.303C124.508 355.645 124.752 356.401 124.752 357.573C124.752 361.284 124.972 364.214 125.411 366.362C125.899 368.511 126.9 370.317 128.414 371.782C129.928 373.247 131.759 374.346 133.907 375.078C136.056 375.811 139.156 376.567 143.209 377.349ZM131.271 437.7C127.56 437.7 124.288 437.212 121.456 436.235C118.673 435.308 115.621 433.33 112.301 430.303C110.689 428.838 109.884 427.3 109.884 425.688C109.884 424.37 110.421 423.174 111.495 422.1C114.718 418.877 117.623 417.266 120.211 417.266C121.871 417.266 123.727 418.12 125.777 419.829C128.609 422.271 130.953 423.857 132.809 424.59C134.713 425.322 136.935 425.688 139.474 425.688C141.622 425.688 143.6 425.273 145.406 424.443C147.262 423.613 148.36 423.198 148.702 423.198C149.923 423.198 150.533 423.979 150.533 425.542C150.533 426.323 150.216 427.324 149.581 428.545C148.946 429.766 147.945 431.108 146.578 432.573C145.26 433.989 143.233 435.186 140.499 436.162C137.813 437.188 134.737 437.7 131.271 437.7ZM167.745 339.116C167.745 341.021 166.476 342.925 163.937 344.829C161.446 346.733 159.273 347.686 157.418 347.686C156.246 347.686 154.659 347.246 152.657 346.367C150.655 345.488 148.385 344.609 145.846 343.73C143.355 342.852 140.914 342.412 138.521 342.412C134.42 342.412 130.587 343.193 127.022 344.756C123.507 346.27 119.747 348.687 115.743 352.007C113.106 354.204 111.446 355.303 110.763 355.303C109.688 355.303 109.151 354.717 109.151 353.545C109.151 352.764 109.615 351.567 110.543 349.956C111.471 348.345 112.35 347.026 113.18 346.001C121.773 335.601 133.175 330.4 147.384 330.4C150.069 330.4 152.95 330.742 156.026 331.426C159.103 332.061 161.812 333.086 164.156 334.502C166.549 335.869 167.745 337.407 167.745 339.116Z" fill="white"/>
</svg>
