<svg width="500" height="500" viewBox="0 0 500 500" fill="none" xmlns="http://www.w3.org/2000/svg">
<rect width="500" height="500" rx="15" fill="white"/>
<path d="M86.7959 315.149V326.062C86.7959 328.65 85.5508 330.823 83.0605 332.581C80.6191 334.339 78.3242 335.218 76.1758 335.218C74.4668 335.218 73.6123 334.168 73.6123 332.068V320.789C73.6123 318.494 74.833 316.468 77.2744 314.71C79.7158 312.903 82.0352 312 84.2324 312C85.9414 312 86.7959 313.05 86.7959 315.149ZM86.7959 353.309V442.298C86.7959 446.741 86.3076 450.745 85.3311 454.31C84.3545 457.874 83.1094 460.657 81.5957 462.659C80.1309 464.661 78.6172 466.175 77.0547 467.2C75.541 468.226 74.1006 468.738 72.7334 468.738C71.8057 468.738 71.3418 468.323 71.3418 467.493C71.3418 467.2 71.6348 466.346 72.2207 464.93C72.8066 463.562 73.1973 462.098 73.3926 460.535C73.6367 458.826 73.7588 455.872 73.7588 451.673L73.6123 359.607C73.6123 357.752 74.0518 356.263 74.9307 355.14C76.2002 353.675 77.6895 352.479 79.3984 351.551C81.1562 350.623 82.7676 350.159 84.2324 350.159C85.9414 350.159 86.7959 351.209 86.7959 353.309ZM57.4258 458.338C59.0859 460.242 60.9414 461.194 62.9922 461.194C63.6758 461.194 64.5791 460.901 65.7021 460.315C66.874 459.778 67.6309 459.51 67.9727 459.51C68.9492 459.51 69.4375 460.071 69.4375 461.194C69.4375 461.976 69.1689 462.928 68.6318 464.051C68.1436 465.174 67.4355 466.321 66.5078 467.493C65.6289 468.665 64.4082 469.642 62.8457 470.423C61.2832 471.253 59.5986 471.668 57.792 471.668C54.3252 471.668 51.4932 470.765 49.2959 468.958C47.0986 467.151 46 465.369 46 463.611C46 461.902 46.9033 460.193 48.71 458.484C50.4678 456.873 52.0547 456.067 53.4707 456.067C54.7891 456.067 56.1074 456.824 57.4258 458.338Z" fill="black"/>
<path d="M135.209 369.349C139.066 370.081 142.509 370.984 145.536 372.059C148.612 373.133 151.2 374.28 153.3 375.501C155.399 376.673 157.206 378.04 158.72 379.603C160.233 381.165 161.405 382.679 162.235 384.144C163.114 385.608 163.798 387.293 164.286 389.197C164.774 391.102 165.092 392.859 165.238 394.471C165.385 396.033 165.458 397.864 165.458 399.964C165.458 403.87 164.726 407.605 163.261 411.17C161.796 414.734 159.965 417.688 157.768 420.032C155.619 422.327 153.373 424.158 151.029 425.525C148.686 426.893 146.562 427.576 144.657 427.576C143.632 427.576 143.119 427.088 143.119 426.111C143.119 425.477 143.51 424.769 144.291 423.987C146.781 421.595 148.612 418.689 149.784 415.271C150.956 411.854 151.542 408.753 151.542 405.97C151.542 404.31 151.518 403.016 151.469 402.088C151.42 401.16 151.249 399.891 150.956 398.279C150.712 396.668 150.321 395.374 149.784 394.397C149.296 393.372 148.539 392.225 147.514 390.955C146.488 389.637 145.243 388.562 143.778 387.732C142.313 386.854 140.434 386.048 138.139 385.315C135.893 384.534 133.305 383.924 130.375 383.484C126.664 382.947 123.319 382.239 120.341 381.36C117.411 380.433 114.97 379.456 113.017 378.431C111.112 377.405 109.452 376.209 108.036 374.842C106.669 373.475 105.619 372.205 104.887 371.033C104.154 369.812 103.593 368.445 103.202 366.932C102.812 365.418 102.567 364.173 102.47 363.196C102.372 362.171 102.323 361.023 102.323 359.754C102.323 358.289 102.543 356.897 102.982 355.579C103.666 353.479 105.229 351.478 107.67 349.573C110.111 347.669 112.235 346.717 114.042 346.717C114.921 346.717 115.58 346.912 116.02 347.303C116.508 347.645 116.752 348.401 116.752 349.573C116.752 353.284 116.972 356.214 117.411 358.362C117.899 360.511 118.9 362.317 120.414 363.782C121.928 365.247 123.759 366.346 125.907 367.078C128.056 367.811 131.156 368.567 135.209 369.349ZM123.271 429.7C119.56 429.7 116.288 429.212 113.456 428.235C110.673 427.308 107.621 425.33 104.301 422.303C102.689 420.838 101.884 419.3 101.884 417.688C101.884 416.37 102.421 415.174 103.495 414.1C106.718 410.877 109.623 409.266 112.211 409.266C113.871 409.266 115.727 410.12 117.777 411.829C120.609 414.271 122.953 415.857 124.809 416.59C126.713 417.322 128.935 417.688 131.474 417.688C133.622 417.688 135.6 417.273 137.406 416.443C139.262 415.613 140.36 415.198 140.702 415.198C141.923 415.198 142.533 415.979 142.533 417.542C142.533 418.323 142.216 419.324 141.581 420.545C140.946 421.766 139.945 423.108 138.578 424.573C137.26 425.989 135.233 427.186 132.499 428.162C129.813 429.188 126.737 429.7 123.271 429.7ZM159.745 331.116C159.745 333.021 158.476 334.925 155.937 336.829C153.446 338.733 151.273 339.686 149.418 339.686C148.246 339.686 146.659 339.246 144.657 338.367C142.655 337.488 140.385 336.609 137.846 335.73C135.355 334.852 132.914 334.412 130.521 334.412C126.42 334.412 122.587 335.193 119.022 336.756C115.507 338.27 111.747 340.687 107.743 344.007C105.106 346.204 103.446 347.303 102.763 347.303C101.688 347.303 101.151 346.717 101.151 345.545C101.151 344.764 101.615 343.567 102.543 341.956C103.471 340.345 104.35 339.026 105.18 338.001C113.773 327.601 125.175 322.4 139.384 322.4C142.069 322.4 144.95 322.742 148.026 323.426C151.103 324.061 153.812 325.086 156.156 326.502C158.549 327.869 159.745 329.407 159.745 331.116Z" fill="black"/>
</svg>
